<?xml version="1.0" encoding="UTF-8" standalone="no"?>
<!DOCTYPE svg PUBLIC "-//W3C//DTD SVG 1.1//EN"
 "http://www.w3.org/Graphics/SVG/1.1/DTD/svg11.dtd">
<!-- Generated by graphviz version 7.0.6 (20230106.0513)
 -->
<!-- Title: G Pages: 1 -->
<svg width="984pt" height="1680pt"
 viewBox="0.00 0.00 984.20 1680.13" xmlns="http://www.w3.org/2000/svg" xmlns:xlink="http://www.w3.org/1999/xlink">
<g id="graph0" class="graph" transform="scale(1 1) rotate(0) translate(21.6 1658.53)">
<title>G</title>
<polygon fill="#111111" stroke="none" points="-21.6,21.6 -21.6,-1658.53 962.6,-1658.53 962.6,21.6 -21.6,21.6"/>
<!-- helpers/appartValidation.js -->
<g id="node1" class="node">
<title>helpers/appartValidation.js</title>
<path fill="none" stroke="#c6c5fe" d="M688.33,-1561.62C688.33,-1561.62 520.67,-1561.62 520.67,-1561.62 516.83,-1561.62 513,-1557.79 513,-1553.96 513,-1553.96 513,-1546.29 513,-1546.29 513,-1542.46 516.83,-1538.62 520.67,-1538.62 520.67,-1538.62 688.33,-1538.62 688.33,-1538.62 692.17,-1538.62 696,-1542.46 696,-1546.29 696,-1546.29 696,-1553.96 696,-1553.96 696,-1557.79 692.17,-1561.62 688.33,-1561.62"/>
<text text-anchor="middle" x="604.5" y="-1546.42" font-family="Arial" font-size="14.00" fill="#c6c5fe">helpers/appartValidation.js</text>
</g>
<!-- helpers/validation.js -->
<g id="node2" class="node">
<title>helpers/validation.js</title>
<path fill="none" stroke="#cfffac" d="M904.83,-706.62C904.83,-706.62 780.17,-706.62 780.17,-706.62 776.33,-706.62 772.5,-702.79 772.5,-698.96 772.5,-698.96 772.5,-691.29 772.5,-691.29 772.5,-687.46 776.33,-683.62 780.17,-683.62 780.17,-683.62 904.83,-683.62 904.83,-683.62 908.67,-683.62 912.5,-687.46 912.5,-691.29 912.5,-691.29 912.5,-698.96 912.5,-698.96 912.5,-702.79 908.67,-706.62 904.83,-706.62"/>
<text text-anchor="middle" x="842.5" y="-691.42" font-family="Arial" font-size="14.00" fill="#cfffac">helpers/validation.js</text>
</g>
<!-- helpers/appartValidation.js&#45;&gt;helpers/validation.js -->
<g id="edge1" class="edge">
<title>helpers/appartValidation.js&#45;&gt;helpers/validation.js</title>
<path fill="none" stroke="#757575" d="M610.13,-1538.24C626.3,-1496.2 680.81,-1350.29 708,-1225.12 735.85,-1096.91 710.74,-1059.04 744,-932.12 765.54,-849.9 809.23,-758.42 830.01,-717.28"/>
<polygon fill="#757575" stroke="#757575" points="833.11,-718.91 834.54,-708.41 826.88,-715.72 833.11,-718.91"/>
</g>
<!-- models/building.model.js -->
<g id="node3" class="node">
<title>models/building.model.js</title>
<path fill="none" stroke="#cfffac" d="M921.83,-1503.62C921.83,-1503.62 763.17,-1503.62 763.17,-1503.62 759.33,-1503.62 755.5,-1499.79 755.5,-1495.96 755.5,-1495.96 755.5,-1488.29 755.5,-1488.29 755.5,-1484.46 759.33,-1480.62 763.17,-1480.62 763.17,-1480.62 921.83,-1480.62 921.83,-1480.62 925.67,-1480.62 929.5,-1484.46 929.5,-1488.29 929.5,-1488.29 929.5,-1495.96 929.5,-1495.96 929.5,-1499.79 925.67,-1503.62 921.83,-1503.62"/>
<text text-anchor="middle" x="842.5" y="-1488.42" font-family="Arial" font-size="14.00" fill="#cfffac">models/building.model.js</text>
</g>
<!-- helpers/appartValidation.js&#45;&gt;models/building.model.js -->
<g id="edge2" class="edge">
<title>helpers/appartValidation.js&#45;&gt;models/building.model.js</title>
<path fill="none" stroke="#757575" d="M654.11,-1538.18C691.16,-1529.07 742.35,-1516.49 781.87,-1506.78"/>
<polygon fill="#757575" stroke="#757575" points="782.6,-1510.2 791.48,-1504.42 780.93,-1503.41 782.6,-1510.2"/>
</g>
<!-- helpers/billValidation.js -->
<g id="node4" class="node">
<title>helpers/billValidation.js</title>
<path fill="none" stroke="#c6c5fe" d="M677.33,-547.62C677.33,-547.62 531.67,-547.62 531.67,-547.62 527.83,-547.62 524,-543.79 524,-539.96 524,-539.96 524,-532.29 524,-532.29 524,-528.46 527.83,-524.62 531.67,-524.62 531.67,-524.62 677.33,-524.62 677.33,-524.62 681.17,-524.62 685,-528.46 685,-532.29 685,-532.29 685,-539.96 685,-539.96 685,-543.79 681.17,-547.62 677.33,-547.62"/>
<text text-anchor="middle" x="604.5" y="-532.42" font-family="Arial" font-size="14.00" fill="#c6c5fe">helpers/billValidation.js</text>
</g>
<!-- helpers/billValidation.js&#45;&gt;helpers/validation.js -->
<g id="edge3" class="edge">
<title>helpers/billValidation.js&#45;&gt;helpers/validation.js</title>
<path fill="none" stroke="#757575" d="M674.2,-548.12C685.9,-551.66 697.62,-556.24 708,-562.12 759.13,-591.13 804.26,-644.94 826.62,-674.45"/>
<polygon fill="#757575" stroke="#757575" points="823.63,-676.29 832.4,-682.24 829.25,-672.12 823.63,-676.29"/>
</g>
<!-- models/status.model.js -->
<g id="node5" class="node">
<title>models/status.model.js</title>
<path fill="none" stroke="#cfffac" d="M916.33,-405.62C916.33,-405.62 768.67,-405.62 768.67,-405.62 764.83,-405.62 761,-401.79 761,-397.96 761,-397.96 761,-390.29 761,-390.29 761,-386.46 764.83,-382.62 768.67,-382.62 768.67,-382.62 916.33,-382.62 916.33,-382.62 920.17,-382.62 924,-386.46 924,-390.29 924,-390.29 924,-397.96 924,-397.96 924,-401.79 920.17,-405.62 916.33,-405.62"/>
<text text-anchor="middle" x="842.5" y="-390.42" font-family="Arial" font-size="14.00" fill="#cfffac">models/status.model.js</text>
</g>
<!-- helpers/billValidation.js&#45;&gt;models/status.model.js -->
<g id="edge4" class="edge">
<title>helpers/billValidation.js&#45;&gt;models/status.model.js</title>
<path fill="none" stroke="#757575" d="M626,-524.3C646.74,-512.29 679.71,-493.09 708,-476.12 744.4,-454.29 786.04,-428.6 812.99,-411.88"/>
<polygon fill="#757575" stroke="#757575" points="814.63,-414.98 821.28,-406.73 810.94,-409.03 814.63,-414.98"/>
</g>
<!-- models/tenant.model.js -->
<g id="node6" class="node">
<title>models/tenant.model.js</title>
<path fill="none" stroke="#cfffac" d="M916.83,-964.62C916.83,-964.62 768.17,-964.62 768.17,-964.62 764.33,-964.62 760.5,-960.79 760.5,-956.96 760.5,-956.96 760.5,-949.29 760.5,-949.29 760.5,-945.46 764.33,-941.62 768.17,-941.62 768.17,-941.62 916.83,-941.62 916.83,-941.62 920.67,-941.62 924.5,-945.46 924.5,-949.29 924.5,-949.29 924.5,-956.96 924.5,-956.96 924.5,-960.79 920.67,-964.62 916.83,-964.62"/>
<text text-anchor="middle" x="842.5" y="-949.42" font-family="Arial" font-size="14.00" fill="#cfffac">models/tenant.model.js</text>
</g>
<!-- helpers/billValidation.js&#45;&gt;models/tenant.model.js -->
<g id="edge5" class="edge">
<title>helpers/billValidation.js&#45;&gt;models/tenant.model.js</title>
<path fill="none" stroke="#757575" d="M639.54,-548.02C661.99,-557.51 690.4,-572.91 708,-595.12 742.58,-638.77 725.42,-662.63 744,-715.12 772.59,-795.93 813.12,-889.36 831.61,-931.06"/>
<polygon fill="#757575" stroke="#757575" points="828.34,-932.3 835.6,-940.01 834.73,-929.45 828.34,-932.3"/>
</g>
<!-- helpers/contractValidation.js -->
<g id="node7" class="node">
<title>helpers/contractValidation.js</title>
<path fill="none" stroke="#c6c5fe" d="M693.83,-1215.62C693.83,-1215.62 515.17,-1215.62 515.17,-1215.62 511.33,-1215.62 507.5,-1211.79 507.5,-1207.96 507.5,-1207.96 507.5,-1200.29 507.5,-1200.29 507.5,-1196.46 511.33,-1192.62 515.17,-1192.62 515.17,-1192.62 693.83,-1192.62 693.83,-1192.62 697.67,-1192.62 701.5,-1196.46 701.5,-1200.29 701.5,-1200.29 701.5,-1207.96 701.5,-1207.96 701.5,-1211.79 697.67,-1215.62 693.83,-1215.62"/>
<text text-anchor="middle" x="604.5" y="-1200.42" font-family="Arial" font-size="14.00" fill="#c6c5fe">helpers/contractValidation.js</text>
</g>
<!-- helpers/contractValidation.js&#45;&gt;helpers/validation.js -->
<g id="edge6" class="edge">
<title>helpers/contractValidation.js&#45;&gt;helpers/validation.js</title>
<path fill="none" stroke="#757575" d="M689.32,-1192.25C696.31,-1188.61 702.71,-1183.99 708,-1178.12 745,-1137.1 729.38,-985.4 744,-932.12 766.49,-850.16 809.71,-758.54 830.2,-717.33"/>
<polygon fill="#757575" stroke="#757575" points="833.3,-718.95 834.66,-708.44 827.04,-715.81 833.3,-718.95"/>
</g>
<!-- helpers/contractValidation.js&#45;&gt;models/building.model.js -->
<g id="edge8" class="edge">
<title>helpers/contractValidation.js&#45;&gt;models/building.model.js</title>
<path fill="none" stroke="#757575" d="M614.41,-1215.73C636.16,-1243.98 693.89,-1318.5 744,-1379.12 771.28,-1412.13 803.96,-1449.6 823.71,-1472.03"/>
<polygon fill="#757575" stroke="#757575" points="820.84,-1474.07 830.08,-1479.25 826.09,-1469.44 820.84,-1474.07"/>
</g>
<!-- helpers/contractValidation.js&#45;&gt;models/tenant.model.js -->
<g id="edge10" class="edge">
<title>helpers/contractValidation.js&#45;&gt;models/tenant.model.js</title>
<path fill="none" stroke="#757575" d="M681.41,-1192.19C690.91,-1188.65 700.06,-1184.06 708,-1178.12 779.3,-1124.83 819.68,-1021.26 834.69,-975.64"/>
<polygon fill="#757575" stroke="#757575" points="837.96,-976.9 837.65,-966.31 831.28,-974.78 837.96,-976.9"/>
</g>
<!-- models/appartment.model.js -->
<g id="node8" class="node">
<title>models/appartment.model.js</title>
<path fill="none" stroke="#cfffac" d="M933.33,-1215.62C933.33,-1215.62 751.67,-1215.62 751.67,-1215.62 747.83,-1215.62 744,-1211.79 744,-1207.96 744,-1207.96 744,-1200.29 744,-1200.29 744,-1196.46 747.83,-1192.62 751.67,-1192.62 751.67,-1192.62 933.33,-1192.62 933.33,-1192.62 937.17,-1192.62 941,-1196.46 941,-1200.29 941,-1200.29 941,-1207.96 941,-1207.96 941,-1211.79 937.17,-1215.62 933.33,-1215.62"/>
<text text-anchor="middle" x="842.5" y="-1200.42" font-family="Arial" font-size="14.00" fill="#cfffac">models/appartment.model.js</text>
</g>
<!-- helpers/contractValidation.js&#45;&gt;models/appartment.model.js -->
<g id="edge7" class="edge">
<title>helpers/contractValidation.js&#45;&gt;models/appartment.model.js</title>
<path fill="none" stroke="#757575" d="M701.83,-1204.12C711.83,-1204.12 722.05,-1204.12 732.18,-1204.12"/>
<polygon fill="#757575" stroke="#757575" points="732.05,-1207.62 742.05,-1204.12 732.05,-1200.62 732.05,-1207.62"/>
</g>
<!-- models/contract.model.js -->
<g id="node9" class="node">
<title>models/contract.model.js</title>
<path fill="none" stroke="#cfffac" d="M922.83,-1369.62C922.83,-1369.62 762.17,-1369.62 762.17,-1369.62 758.33,-1369.62 754.5,-1365.79 754.5,-1361.96 754.5,-1361.96 754.5,-1354.29 754.5,-1354.29 754.5,-1350.46 758.33,-1346.62 762.17,-1346.62 762.17,-1346.62 922.83,-1346.62 922.83,-1346.62 926.67,-1346.62 930.5,-1350.46 930.5,-1354.29 930.5,-1354.29 930.5,-1361.96 930.5,-1361.96 930.5,-1365.79 926.67,-1369.62 922.83,-1369.62"/>
<text text-anchor="middle" x="842.5" y="-1354.42" font-family="Arial" font-size="14.00" fill="#cfffac">models/contract.model.js</text>
</g>
<!-- helpers/contractValidation.js&#45;&gt;models/contract.model.js -->
<g id="edge9" class="edge">
<title>helpers/contractValidation.js&#45;&gt;models/contract.model.js</title>
<path fill="none" stroke="#757575" d="M673.56,-1216.12C685.46,-1219.67 697.4,-1224.25 708,-1230.12 757.95,-1257.83 802.94,-1308.84 825.75,-1337.39"/>
<polygon fill="#757575" stroke="#757575" points="822.75,-1339.23 831.68,-1344.95 828.26,-1334.92 822.75,-1339.23"/>
</g>
<!-- middlewares/adminAccess.js -->
<g id="node10" class="node">
<title>middlewares/adminAccess.js</title>
<path fill="none" stroke="#cfffac" d="M697.33,-467.62C697.33,-467.62 511.67,-467.62 511.67,-467.62 507.83,-467.62 504,-463.79 504,-459.96 504,-459.96 504,-452.29 504,-452.29 504,-448.46 507.83,-444.62 511.67,-444.62 511.67,-444.62 697.33,-444.62 697.33,-444.62 701.17,-444.62 705,-448.46 705,-452.29 705,-452.29 705,-459.96 705,-459.96 705,-463.79 701.17,-467.62 697.33,-467.62"/>
<text text-anchor="middle" x="604.5" y="-452.42" font-family="Arial" font-size="14.00" fill="#cfffac">middlewares/adminAccess.js</text>
</g>
<!-- middlewares/filterAccess.js -->
<g id="node11" class="node">
<title>middlewares/filterAccess.js</title>
<path fill="none" stroke="#cfffac" d="M691.83,-668.62C691.83,-668.62 517.17,-668.62 517.17,-668.62 513.33,-668.62 509.5,-664.79 509.5,-660.96 509.5,-660.96 509.5,-653.29 509.5,-653.29 509.5,-649.46 513.33,-645.62 517.17,-645.62 517.17,-645.62 691.83,-645.62 691.83,-645.62 695.67,-645.62 699.5,-649.46 699.5,-653.29 699.5,-653.29 699.5,-660.96 699.5,-660.96 699.5,-664.79 695.67,-668.62 691.83,-668.62"/>
<text text-anchor="middle" x="604.5" y="-653.42" font-family="Arial" font-size="14.00" fill="#cfffac">middlewares/filterAccess.js</text>
</g>
<!-- middlewares/jwt.js -->
<g id="node12" class="node">
<title>middlewares/jwt.js</title>
<path fill="none" stroke="#cfffac" d="M662.33,-426.62C662.33,-426.62 546.67,-426.62 546.67,-426.62 542.83,-426.62 539,-422.79 539,-418.96 539,-418.96 539,-411.29 539,-411.29 539,-407.46 542.83,-403.62 546.67,-403.62 546.67,-403.62 662.33,-403.62 662.33,-403.62 666.17,-403.62 670,-407.46 670,-411.29 670,-411.29 670,-418.96 670,-418.96 670,-422.79 666.17,-426.62 662.33,-426.62"/>
<text text-anchor="middle" x="604.5" y="-411.42" font-family="Arial" font-size="14.00" fill="#cfffac">middlewares/jwt.js</text>
</g>
<!-- middlewares/swagger.js -->
<g id="node13" class="node">
<title>middlewares/swagger.js</title>
<path fill="none" stroke="#cfffac" d="M268.33,-568.62C268.33,-568.62 114.67,-568.62 114.67,-568.62 110.83,-568.62 107,-564.79 107,-560.96 107,-560.96 107,-553.29 107,-553.29 107,-549.46 110.83,-545.62 114.67,-545.62 114.67,-545.62 268.33,-545.62 268.33,-545.62 272.17,-545.62 276,-549.46 276,-553.29 276,-553.29 276,-560.96 276,-560.96 276,-564.79 272.17,-568.62 268.33,-568.62"/>
<text text-anchor="middle" x="191.5" y="-553.42" font-family="Arial" font-size="14.00" fill="#cfffac">middlewares/swagger.js</text>
</g>
<!-- models/bill.model.js -->
<g id="node14" class="node">
<title>models/bill.model.js</title>
<path fill="none" stroke="#cfffac" d="M668.33,-344.62C668.33,-344.62 540.67,-344.62 540.67,-344.62 536.83,-344.62 533,-340.79 533,-336.96 533,-336.96 533,-329.29 533,-329.29 533,-325.46 536.83,-321.62 540.67,-321.62 540.67,-321.62 668.33,-321.62 668.33,-321.62 672.17,-321.62 676,-325.46 676,-329.29 676,-329.29 676,-336.96 676,-336.96 676,-340.79 672.17,-344.62 668.33,-344.62"/>
<text text-anchor="middle" x="604.5" y="-329.42" font-family="Arial" font-size="14.00" fill="#cfffac">models/bill.model.js</text>
</g>
<!-- models/bill_status.model.js -->
<g id="node15" class="node">
<title>models/bill_status.model.js</title>
<path fill="none" stroke="#cfffac" d="M690.83,-303.62C690.83,-303.62 518.17,-303.62 518.17,-303.62 514.33,-303.62 510.5,-299.79 510.5,-295.96 510.5,-295.96 510.5,-288.29 510.5,-288.29 510.5,-284.46 514.33,-280.62 518.17,-280.62 518.17,-280.62 690.83,-280.62 690.83,-280.62 694.67,-280.62 698.5,-284.46 698.5,-288.29 698.5,-288.29 698.5,-295.96 698.5,-295.96 698.5,-299.79 694.67,-303.62 690.83,-303.62"/>
<text text-anchor="middle" x="604.5" y="-288.42" font-family="Arial" font-size="14.00" fill="#cfffac">models/bill_status.model.js</text>
</g>
<!-- models/comment.model.js -->
<g id="node16" class="node">
<title>models/comment.model.js</title>
<path fill="none" stroke="#cfffac" d="M689.33,-865.62C689.33,-865.62 519.67,-865.62 519.67,-865.62 515.83,-865.62 512,-861.79 512,-857.96 512,-857.96 512,-850.29 512,-850.29 512,-846.46 515.83,-842.62 519.67,-842.62 519.67,-842.62 689.33,-842.62 689.33,-842.62 693.17,-842.62 697,-846.46 697,-850.29 697,-850.29 697,-857.96 697,-857.96 697,-861.79 693.17,-865.62 689.33,-865.62"/>
<text text-anchor="middle" x="604.5" y="-850.42" font-family="Arial" font-size="14.00" fill="#cfffac">models/comment.model.js</text>
</g>
<!-- models/file.model.js -->
<g id="node17" class="node">
<title>models/file.model.js</title>
<path fill="none" stroke="#cfffac" d="M668.83,-709.62C668.83,-709.62 540.17,-709.62 540.17,-709.62 536.33,-709.62 532.5,-705.79 532.5,-701.96 532.5,-701.96 532.5,-694.29 532.5,-694.29 532.5,-690.46 536.33,-686.62 540.17,-686.62 540.17,-686.62 668.83,-686.62 668.83,-686.62 672.67,-686.62 676.5,-690.46 676.5,-694.29 676.5,-694.29 676.5,-701.96 676.5,-701.96 676.5,-705.79 672.67,-709.62 668.83,-709.62"/>
<text text-anchor="middle" x="604.5" y="-694.42" font-family="Arial" font-size="14.00" fill="#cfffac">models/file.model.js</text>
</g>
<!-- models/message.model.js -->
<g id="node18" class="node">
<title>models/message.model.js</title>
<path fill="none" stroke="#cfffac" d="M689.33,-627.62C689.33,-627.62 519.67,-627.62 519.67,-627.62 515.83,-627.62 512,-623.79 512,-619.96 512,-619.96 512,-612.29 512,-612.29 512,-608.46 515.83,-604.62 519.67,-604.62 519.67,-604.62 689.33,-604.62 689.33,-604.62 693.17,-604.62 697,-608.46 697,-612.29 697,-612.29 697,-619.96 697,-619.96 697,-623.79 693.17,-627.62 689.33,-627.62"/>
<text text-anchor="middle" x="604.5" y="-612.42" font-family="Arial" font-size="14.00" fill="#cfffac">models/message.model.js</text>
</g>
<!-- models/owner.model.js -->
<g id="node19" class="node">
<title>models/owner.model.js</title>
<path fill="none" stroke="#cfffac" d="M678.83,-945.62C678.83,-945.62 530.17,-945.62 530.17,-945.62 526.33,-945.62 522.5,-941.79 522.5,-937.96 522.5,-937.96 522.5,-930.29 522.5,-930.29 522.5,-926.46 526.33,-922.62 530.17,-922.62 530.17,-922.62 678.83,-922.62 678.83,-922.62 682.67,-922.62 686.5,-926.46 686.5,-930.29 686.5,-930.29 686.5,-937.96 686.5,-937.96 686.5,-941.79 682.67,-945.62 678.83,-945.62"/>
<text text-anchor="middle" x="604.5" y="-930.42" font-family="Arial" font-size="14.00" fill="#cfffac">models/owner.model.js</text>
</g>
<!-- models/repair.model.js -->
<g id="node20" class="node">
<title>models/repair.model.js</title>
<path fill="none" stroke="#cfffac" d="M677.33,-144.62C677.33,-144.62 531.67,-144.62 531.67,-144.62 527.83,-144.62 524,-140.79 524,-136.96 524,-136.96 524,-129.29 524,-129.29 524,-125.46 527.83,-121.62 531.67,-121.62 531.67,-121.62 677.33,-121.62 677.33,-121.62 681.17,-121.62 685,-125.46 685,-129.29 685,-129.29 685,-136.96 685,-136.96 685,-140.79 681.17,-144.62 677.33,-144.62"/>
<text text-anchor="middle" x="604.5" y="-129.42" font-family="Arial" font-size="14.00" fill="#cfffac">models/repair.model.js</text>
</g>
<!-- models/repair_status.model.js -->
<g id="node21" class="node">
<title>models/repair_status.model.js</title>
<path fill="none" stroke="#cfffac" d="M700.33,-262.62C700.33,-262.62 508.67,-262.62 508.67,-262.62 504.83,-262.62 501,-258.79 501,-254.96 501,-254.96 501,-247.29 501,-247.29 501,-243.46 504.83,-239.62 508.67,-239.62 508.67,-239.62 700.33,-239.62 700.33,-239.62 704.17,-239.62 708,-243.46 708,-247.29 708,-247.29 708,-254.96 708,-254.96 708,-258.79 704.17,-262.62 700.33,-262.62"/>
<text text-anchor="middle" x="604.5" y="-247.42" font-family="Arial" font-size="14.00" fill="#cfffac">models/repair_status.model.js</text>
</g>
<!-- models/task.model.js -->
<g id="node22" class="node">
<title>models/task.model.js</title>
<path fill="none" stroke="#cfffac" d="M672.33,-385.62C672.33,-385.62 536.67,-385.62 536.67,-385.62 532.83,-385.62 529,-381.79 529,-377.96 529,-377.96 529,-370.29 529,-370.29 529,-366.46 532.83,-362.62 536.67,-362.62 536.67,-362.62 672.33,-362.62 672.33,-362.62 676.17,-362.62 680,-366.46 680,-370.29 680,-370.29 680,-377.96 680,-377.96 680,-381.79 676.17,-385.62 672.33,-385.62"/>
<text text-anchor="middle" x="604.5" y="-370.42" font-family="Arial" font-size="14.00" fill="#cfffac">models/task.model.js</text>
</g>
<!-- models/task_status.model.js -->
<g id="node23" class="node">
<title>models/task_status.model.js</title>
<path fill="none" stroke="#cfffac" d="M695.33,-103.62C695.33,-103.62 513.67,-103.62 513.67,-103.62 509.83,-103.62 506,-99.79 506,-95.96 506,-95.96 506,-88.29 506,-88.29 506,-84.46 509.83,-80.62 513.67,-80.62 513.67,-80.62 695.33,-80.62 695.33,-80.62 699.17,-80.62 703,-84.46 703,-88.29 703,-88.29 703,-95.96 703,-95.96 703,-99.79 699.17,-103.62 695.33,-103.62"/>
<text text-anchor="middle" x="604.5" y="-88.42" font-family="Arial" font-size="14.00" fill="#cfffac">models/task_status.model.js</text>
</g>
<!-- routes/appartments.js -->
<g id="node24" class="node">
<title>routes/appartments.js</title>
<path fill="none" stroke="#c6c5fe" d="M457.33,-1273.62C457.33,-1273.62 319.67,-1273.62 319.67,-1273.62 315.83,-1273.62 312,-1269.79 312,-1265.96 312,-1265.96 312,-1258.29 312,-1258.29 312,-1254.46 315.83,-1250.62 319.67,-1250.62 319.67,-1250.62 457.33,-1250.62 457.33,-1250.62 461.17,-1250.62 465,-1254.46 465,-1258.29 465,-1258.29 465,-1265.96 465,-1265.96 465,-1269.79 461.17,-1273.62 457.33,-1273.62"/>
<text text-anchor="middle" x="388.5" y="-1258.42" font-family="Arial" font-size="14.00" fill="#c6c5fe">routes/appartments.js</text>
</g>
<!-- routes/appartments.js&#45;&gt;helpers/appartValidation.js -->
<g id="edge11" class="edge">
<title>routes/appartments.js&#45;&gt;helpers/appartValidation.js</title>
<path fill="none" stroke="#757575" d="M390.84,-1273.94C396.17,-1315.25 419.73,-1454.49 501,-1524.12 505.1,-1527.64 509.61,-1530.68 514.37,-1533.33"/>
<polygon fill="#757575" stroke="#757575" points="512.6,-1536.35 523.12,-1537.55 515.64,-1530.05 512.6,-1536.35"/>
</g>
<!-- routes/appartments.js&#45;&gt;models/building.model.js -->
<g id="edge15" class="edge">
<title>routes/appartments.js&#45;&gt;models/building.model.js</title>
<path fill="none" stroke="#757575" d="M388.95,-1273.97C387.34,-1324.41 388.54,-1522.51 501,-1604.12 575.46,-1658.16 621.55,-1635.59 708,-1604.12 758.1,-1585.89 802.48,-1539.69 825.28,-1512.66"/>
<polygon fill="#757575" stroke="#757575" points="827.81,-1515.1 831.46,-1505.15 822.4,-1510.65 827.81,-1515.1"/>
</g>
<!-- routes/appartments.js&#45;&gt;models/appartment.model.js -->
<g id="edge14" class="edge">
<title>routes/appartments.js&#45;&gt;models/appartment.model.js</title>
<path fill="none" stroke="#757575" d="M465.39,-1263.26C530.29,-1263 625.94,-1259.69 708,-1245.12 739.33,-1239.56 773.63,-1228.93 799.61,-1219.88"/>
<polygon fill="#757575" stroke="#757575" points="800.53,-1223.27 808.78,-1216.63 798.19,-1216.68 800.53,-1223.27"/>
</g>
<!-- routes/appartments.js&#45;&gt;models/contract.model.js -->
<g id="edge16" class="edge">
<title>routes/appartments.js&#45;&gt;models/contract.model.js</title>
<path fill="none" stroke="#757575" d="M391.09,-1274.01C397.04,-1312.96 421.78,-1437.07 501,-1486.12 579.22,-1534.56 622.64,-1520.44 708,-1486.12 761.8,-1464.5 806.13,-1409.69 827.58,-1379.27"/>
<polygon fill="#757575" stroke="#757575" points="830.33,-1381.45 833.1,-1371.23 824.55,-1377.49 830.33,-1381.45"/>
</g>
<!-- routes/appartments.js&#45;&gt;middlewares/adminAccess.js -->
<g id="edge12" class="edge">
<title>routes/appartments.js&#45;&gt;middlewares/adminAccess.js</title>
<path fill="none" stroke="#757575" d="M406.95,-1250.33C425.12,-1236.92 452.63,-1213.23 465,-1185.12 525.07,-1048.65 422.93,-642.15 501,-515.12 512.98,-495.63 533.96,-481.92 553.84,-472.66"/>
<polygon fill="#757575" stroke="#757575" points="555.21,-475.88 562.99,-468.69 552.43,-469.46 555.21,-475.88"/>
</g>
<!-- routes/appartments.js&#45;&gt;middlewares/jwt.js -->
<g id="edge13" class="edge">
<title>routes/appartments.js&#45;&gt;middlewares/jwt.js</title>
<path fill="none" stroke="#757575" d="M406.98,-1250.34C425.18,-1236.95 452.71,-1213.26 465,-1185.12 498.39,-1108.67 446.43,-498.23 501,-435.12 508.13,-426.88 517.56,-421.41 527.83,-417.85"/>
<polygon fill="#757575" stroke="#757575" points="528.6,-421.27 537.3,-415.22 526.73,-414.53 528.6,-421.27"/>
</g>
<!-- routes/appartments.js&#45;&gt;models/file.model.js -->
<g id="edge17" class="edge">
<title>routes/appartments.js&#45;&gt;models/file.model.js</title>
<path fill="none" stroke="#757575" d="M406.69,-1250.21C424.64,-1236.7 451.96,-1212.92 465,-1185.12 531.8,-1042.76 443.3,-979.42 501,-833.12 519.35,-786.6 558.51,-742.34 582.77,-717.86"/>
<polygon fill="#757575" stroke="#757575" points="584.94,-720.63 589.59,-711.11 580.02,-715.65 584.94,-720.63"/>
</g>
<!-- routes/auth.js -->
<g id="node25" class="node">
<title>routes/auth.js</title>
<path fill="none" stroke="#c6c5fe" d="M431.33,-965.62C431.33,-965.62 345.67,-965.62 345.67,-965.62 341.83,-965.62 338,-961.79 338,-957.96 338,-957.96 338,-950.29 338,-950.29 338,-946.46 341.83,-942.62 345.67,-942.62 345.67,-942.62 431.33,-942.62 431.33,-942.62 435.17,-942.62 439,-946.46 439,-950.29 439,-950.29 439,-957.96 439,-957.96 439,-961.79 435.17,-965.62 431.33,-965.62"/>
<text text-anchor="middle" x="388.5" y="-950.42" font-family="Arial" font-size="14.00" fill="#c6c5fe">routes/auth.js</text>
</g>
<!-- routes/auth.js&#45;&gt;helpers/validation.js -->
<g id="edge18" class="edge">
<title>routes/auth.js&#45;&gt;helpers/validation.js</title>
<path fill="none" stroke="#757575" d="M427.96,-966.06C491.5,-983.34 620.06,-1007.73 708,-954.12 794.98,-901.11 827.72,-771.26 837.74,-718.24"/>
<polygon fill="#757575" stroke="#757575" points="841.16,-719 839.46,-708.54 834.27,-717.77 841.16,-719"/>
</g>
<!-- routes/auth.js&#45;&gt;models/tenant.model.js -->
<g id="edge20" class="edge">
<title>routes/auth.js&#45;&gt;models/tenant.model.js</title>
<path fill="none" stroke="#757575" d="M419.7,-966C441.82,-974.03 472.78,-983.92 501,-988.12 591.99,-1001.69 616.75,-999.89 708,-988.12 737.5,-984.32 769.78,-975.98 795.21,-968.39"/>
<polygon fill="#757575" stroke="#757575" points="796.02,-971.8 804.57,-965.53 793.98,-965.11 796.02,-971.8"/>
</g>
<!-- routes/auth.js&#45;&gt;models/owner.model.js -->
<g id="edge19" class="edge">
<title>routes/auth.js&#45;&gt;models/owner.model.js</title>
<path fill="none" stroke="#757575" d="M439.4,-949.46C460.72,-947.47 486.3,-945.08 510.86,-942.78"/>
<polygon fill="#757575" stroke="#757575" points="510.92,-946.29 520.55,-941.88 510.27,-939.32 510.92,-946.29"/>
</g>
<!-- routes/bills.js -->
<g id="node26" class="node">
<title>routes/bills.js</title>
<path fill="none" stroke="#c6c5fe" d="M430.33,-527.62C430.33,-527.62 346.67,-527.62 346.67,-527.62 342.83,-527.62 339,-523.79 339,-519.96 339,-519.96 339,-512.29 339,-512.29 339,-508.46 342.83,-504.62 346.67,-504.62 346.67,-504.62 430.33,-504.62 430.33,-504.62 434.17,-504.62 438,-508.46 438,-512.29 438,-512.29 438,-519.96 438,-519.96 438,-523.79 434.17,-527.62 430.33,-527.62"/>
<text text-anchor="middle" x="388.5" y="-512.42" font-family="Arial" font-size="14.00" fill="#c6c5fe">routes/bills.js</text>
</g>
<!-- routes/bills.js&#45;&gt;helpers/validation.js -->
<g id="edge22" class="edge">
<title>routes/bills.js&#45;&gt;helpers/validation.js</title>
<path fill="none" stroke="#757575" d="M433.27,-504.14C497.41,-489.1 618.97,-470.31 708,-515.12 774.42,-548.56 816.08,-632.41 832.92,-672.75"/>
<polygon fill="#757575" stroke="#757575" points="829.64,-673.96 836.62,-681.93 836.13,-671.35 829.64,-673.96"/>
</g>
<!-- routes/bills.js&#45;&gt;helpers/billValidation.js -->
<g id="edge21" class="edge">
<title>routes/bills.js&#45;&gt;helpers/billValidation.js</title>
<path fill="none" stroke="#757575" d="M438.33,-520.69C460.36,-522.75 487.11,-525.25 512.62,-527.63"/>
<polygon fill="#757575" stroke="#757575" points="512.05,-531.09 522.33,-528.54 512.7,-524.12 512.05,-531.09"/>
</g>
<!-- routes/bills.js&#45;&gt;middlewares/adminAccess.js -->
<g id="edge23" class="edge">
<title>routes/bills.js&#45;&gt;middlewares/adminAccess.js</title>
<path fill="none" stroke="#757575" d="M434.78,-504.13C444.77,-501.31 455.28,-498.23 465,-495.12 481.21,-489.95 484.74,-487.11 501,-482.12 513.89,-478.17 527.82,-474.35 541.13,-470.9"/>
<polygon fill="#757575" stroke="#757575" points="541.84,-474.34 550.66,-468.48 540.11,-467.55 541.84,-474.34"/>
</g>
<!-- routes/bills.js&#45;&gt;middlewares/jwt.js -->
<g id="edge24" class="edge">
<title>routes/bills.js&#45;&gt;middlewares/jwt.js</title>
<path fill="none" stroke="#757575" d="M438.36,-508.37C447.82,-505.32 457.21,-501.06 465,-495.12 489.74,-476.28 475.54,-452.98 501,-435.12 509.04,-429.49 518.26,-425.34 527.8,-422.31"/>
<polygon fill="#757575" stroke="#757575" points="528.49,-425.75 537.21,-419.73 526.64,-419 528.49,-425.75"/>
</g>
<!-- routes/bills.js&#45;&gt;models/bill.model.js -->
<g id="edge25" class="edge">
<title>routes/bills.js&#45;&gt;models/bill.model.js</title>
<path fill="none" stroke="#757575" d="M438.27,-510.55C448.18,-507.37 457.77,-502.52 465,-495.12 510.51,-448.56 453.7,-397.87 501,-353.12 507.02,-347.43 514.16,-343.13 521.83,-339.91"/>
<polygon fill="#757575" stroke="#757575" points="522.84,-343.26 531.13,-336.66 520.53,-336.66 522.84,-343.26"/>
</g>
<!-- routes/bills.js&#45;&gt;models/bill_status.model.js -->
<g id="edge26" class="edge">
<title>routes/bills.js&#45;&gt;models/bill_status.model.js</title>
<path fill="none" stroke="#757575" d="M438.18,-510.96C448.22,-507.77 457.88,-502.81 465,-495.12 521.31,-434.3 442.34,-370.69 501,-312.12 501.38,-311.74 501.77,-311.36 502.17,-310.99"/>
<polygon fill="#757575" stroke="#757575" points="504.16,-313.87 509.92,-304.98 499.88,-308.34 504.16,-313.87"/>
</g>
<!-- routes/bills.js&#45;&gt;models/file.model.js -->
<g id="edge27" class="edge">
<title>routes/bills.js&#45;&gt;models/file.model.js</title>
<path fill="none" stroke="#757575" d="M426.24,-528.01C440.11,-534.14 454.95,-542.95 465,-555.12 501.01,-598.71 459.37,-638.88 501,-677.12 507.02,-682.66 514.1,-686.89 521.67,-690.12"/>
<polygon fill="#757575" stroke="#757575" points="520.23,-693.32 530.83,-693.4 522.6,-686.73 520.23,-693.32"/>
</g>
<!-- routes/billstatus.js -->
<g id="node27" class="node">
<title>routes/billstatus.js</title>
<path fill="none" stroke="#c6c5fe" d="M445.33,-486.62C445.33,-486.62 331.67,-486.62 331.67,-486.62 327.83,-486.62 324,-482.79 324,-478.96 324,-478.96 324,-471.29 324,-471.29 324,-467.46 327.83,-463.62 331.67,-463.62 331.67,-463.62 445.33,-463.62 445.33,-463.62 449.17,-463.62 453,-467.46 453,-471.29 453,-471.29 453,-478.96 453,-478.96 453,-482.79 449.17,-486.62 445.33,-486.62"/>
<text text-anchor="middle" x="388.5" y="-471.42" font-family="Arial" font-size="14.00" fill="#c6c5fe">routes/billstatus.js</text>
</g>
<!-- routes/billstatus.js&#45;&gt;middlewares/adminAccess.js -->
<g id="edge28" class="edge">
<title>routes/billstatus.js&#45;&gt;middlewares/adminAccess.js</title>
<path fill="none" stroke="#757575" d="M453.42,-469.45C465.83,-468.35 479.17,-467.16 492.59,-465.97"/>
<polygon fill="#757575" stroke="#757575" points="492.71,-469.47 502.36,-465.1 492.09,-462.5 492.71,-469.47"/>
</g>
<!-- routes/billstatus.js&#45;&gt;middlewares/jwt.js -->
<g id="edge29" class="edge">
<title>routes/billstatus.js&#45;&gt;middlewares/jwt.js</title>
<path fill="none" stroke="#757575" d="M438.34,-463.19C447.32,-460.54 456.53,-457.49 465,-454.12 481.81,-447.44 483.94,-441.14 501,-435.12 509.51,-432.12 518.58,-429.53 527.68,-427.31"/>
<polygon fill="#757575" stroke="#757575" points="528.31,-430.75 537.28,-425.11 526.75,-423.93 528.31,-430.75"/>
</g>
<!-- routes/billstatus.js&#45;&gt;models/bill_status.model.js -->
<g id="edge30" class="edge">
<title>routes/billstatus.js&#45;&gt;models/bill_status.model.js</title>
<path fill="none" stroke="#757575" d="M453,-463.22C457.4,-460.72 461.48,-457.72 465,-454.12 510.51,-407.56 453.7,-356.87 501,-312.12 501.51,-311.64 502.04,-311.16 502.57,-310.7"/>
<polygon fill="#757575" stroke="#757575" points="504.54,-313.59 510.56,-304.87 500.42,-307.93 504.54,-313.59"/>
</g>
<!-- routes/buildings.js -->
<g id="node28" class="node">
<title>routes/buildings.js</title>
<path fill="none" stroke="#c6c5fe" d="M446.33,-1080.62C446.33,-1080.62 330.67,-1080.62 330.67,-1080.62 326.83,-1080.62 323,-1076.79 323,-1072.96 323,-1072.96 323,-1065.29 323,-1065.29 323,-1061.46 326.83,-1057.62 330.67,-1057.62 330.67,-1057.62 446.33,-1057.62 446.33,-1057.62 450.17,-1057.62 454,-1061.46 454,-1065.29 454,-1065.29 454,-1072.96 454,-1072.96 454,-1076.79 450.17,-1080.62 446.33,-1080.62"/>
<text text-anchor="middle" x="388.5" y="-1065.42" font-family="Arial" font-size="14.00" fill="#c6c5fe">routes/buildings.js</text>
</g>
<!-- routes/buildings.js&#45;&gt;helpers/validation.js -->
<g id="edge31" class="edge">
<title>routes/buildings.js&#45;&gt;helpers/validation.js</title>
<path fill="none" stroke="#757575" d="M454.23,-1067.83C524.32,-1063.16 635.75,-1045.81 708,-985.12 730.32,-966.37 806.13,-782.55 832.43,-717.66"/>
<polygon fill="#757575" stroke="#757575" points="835.67,-718.98 836.17,-708.4 829.18,-716.36 835.67,-718.98"/>
</g>
<!-- routes/buildings.js&#45;&gt;models/building.model.js -->
<g id="edge35" class="edge">
<title>routes/buildings.js&#45;&gt;models/building.model.js</title>
<path fill="none" stroke="#757575" d="M406.84,-1080.95C424.65,-1094.13 451.59,-1117.16 465,-1144.12 518.14,-1250.94 421.04,-1321.58 501,-1410.12 561.59,-1477.22 666.66,-1494.04 744.11,-1496.35"/>
<polygon fill="#757575" stroke="#757575" points="743.74,-1499.84 753.81,-1496.56 743.89,-1492.84 743.74,-1499.84"/>
</g>
<!-- routes/buildings.js&#45;&gt;models/tenant.model.js -->
<g id="edge37" class="edge">
<title>routes/buildings.js&#45;&gt;models/tenant.model.js</title>
<path fill="none" stroke="#757575" d="M454.34,-1080.38C520.38,-1089.07 624.63,-1095 708,-1064.12 757.81,-1045.68 802.3,-1000.03 825.2,-973.37"/>
<polygon fill="#757575" stroke="#757575" points="827.66,-975.88 831.4,-965.97 822.29,-971.39 827.66,-975.88"/>
</g>
<!-- routes/buildings.js&#45;&gt;models/appartment.model.js -->
<g id="edge34" class="edge">
<title>routes/buildings.js&#45;&gt;models/appartment.model.js</title>
<path fill="none" stroke="#757575" d="M429.61,-1081.11C511.95,-1105.7 699.92,-1161.84 790.65,-1188.94"/>
<polygon fill="#757575" stroke="#757575" points="789.44,-1192.23 800.03,-1191.74 791.45,-1185.52 789.44,-1192.23"/>
</g>
<!-- routes/buildings.js&#45;&gt;models/contract.model.js -->
<g id="edge36" class="edge">
<title>routes/buildings.js&#45;&gt;models/contract.model.js</title>
<path fill="none" stroke="#757575" d="M405.32,-1080.95C422.36,-1094.46 449.14,-1118.09 465,-1144.12 492.65,-1189.5 463.05,-1220.94 501,-1258.12 565.35,-1321.19 667.3,-1344.83 742.89,-1353.52"/>
<polygon fill="#757575" stroke="#757575" points="742.49,-1357 752.81,-1354.58 743.24,-1350.04 742.49,-1357"/>
</g>
<!-- routes/buildings.js&#45;&gt;middlewares/adminAccess.js -->
<g id="edge32" class="edge">
<title>routes/buildings.js&#45;&gt;middlewares/adminAccess.js</title>
<path fill="none" stroke="#757575" d="M403.03,-1057.2C420.83,-1040.59 451.42,-1008.63 465,-974.12 502.46,-878.92 446.36,-601.63 501,-515.12 513.27,-495.7 534.39,-481.99 554.29,-472.7"/>
<polygon fill="#757575" stroke="#757575" points="555.68,-475.91 563.45,-468.72 552.89,-469.49 555.68,-475.91"/>
</g>
<!-- routes/buildings.js&#45;&gt;middlewares/jwt.js -->
<g id="edge33" class="edge">
<title>routes/buildings.js&#45;&gt;middlewares/jwt.js</title>
<path fill="none" stroke="#757575" d="M403.09,-1057.22C420.95,-1040.64 451.62,-1008.71 465,-974.12 508.31,-862.17 421.63,-525.19 501,-435.12 508.16,-427 517.56,-421.58 527.77,-418.04"/>
<polygon fill="#757575" stroke="#757575" points="528.49,-421.47 537.18,-415.41 526.61,-414.73 528.49,-421.47"/>
</g>
<!-- routes/contracts.js -->
<g id="node29" class="node">
<title>routes/contracts.js</title>
<path fill="none" stroke="#c6c5fe" d="M446.83,-1175.62C446.83,-1175.62 330.17,-1175.62 330.17,-1175.62 326.33,-1175.62 322.5,-1171.79 322.5,-1167.96 322.5,-1167.96 322.5,-1160.29 322.5,-1160.29 322.5,-1156.46 326.33,-1152.62 330.17,-1152.62 330.17,-1152.62 446.83,-1152.62 446.83,-1152.62 450.67,-1152.62 454.5,-1156.46 454.5,-1160.29 454.5,-1160.29 454.5,-1167.96 454.5,-1167.96 454.5,-1171.79 450.67,-1175.62 446.83,-1175.62"/>
<text text-anchor="middle" x="388.5" y="-1160.42" font-family="Arial" font-size="14.00" fill="#c6c5fe">routes/contracts.js</text>
</g>
<!-- routes/contracts.js&#45;&gt;helpers/validation.js -->
<g id="edge39" class="edge">
<title>routes/contracts.js&#45;&gt;helpers/validation.js</title>
<path fill="none" stroke="#757575" d="M454.68,-1154.87C526.23,-1141.38 639.94,-1109.62 708,-1038.12 742.3,-1002.09 726.53,-978.71 744,-932.12 773.99,-852.16 813.82,-758.87 831.88,-717.19"/>
<polygon fill="#757575" stroke="#757575" points="834.99,-718.81 835.76,-708.25 828.57,-716.02 834.99,-718.81"/>
</g>
<!-- routes/contracts.js&#45;&gt;models/building.model.js -->
<g id="edge43" class="edge">
<title>routes/contracts.js&#45;&gt;models/building.model.js</title>
<path fill="none" stroke="#757575" d="M406.33,-1176.02C424.24,-1189.71 451.78,-1213.98 465,-1242.12 496.26,-1308.7 446.24,-1522.03 501,-1571.12 593.43,-1653.99 755.55,-1553.99 816.97,-1510.45"/>
<polygon fill="#757575" stroke="#757575" points="818.65,-1513.56 824.71,-1504.87 814.56,-1507.88 818.65,-1513.56"/>
</g>
<!-- routes/contracts.js&#45;&gt;helpers/contractValidation.js -->
<g id="edge38" class="edge">
<title>routes/contracts.js&#45;&gt;helpers/contractValidation.js</title>
<path fill="none" stroke="#757575" d="M453.42,-1176.07C477.02,-1180.48 503.98,-1185.52 528.48,-1190.1"/>
<polygon fill="#757575" stroke="#757575" points="527.58,-1193.49 538.05,-1191.89 528.87,-1186.61 527.58,-1193.49"/>
</g>
<!-- routes/contracts.js&#45;&gt;models/appartment.model.js -->
<g id="edge42" class="edge">
<title>routes/contracts.js&#45;&gt;models/appartment.model.js</title>
<path fill="none" stroke="#757575" d="M405.04,-1175.96C425.66,-1190.85 463.8,-1215.61 501,-1225.12 597.62,-1249.83 714.44,-1232.95 783.09,-1218.5"/>
<polygon fill="#757575" stroke="#757575" points="783.59,-1221.98 792.62,-1216.44 782.1,-1215.14 783.59,-1221.98"/>
</g>
<!-- routes/contracts.js&#45;&gt;models/contract.model.js -->
<g id="edge44" class="edge">
<title>routes/contracts.js&#45;&gt;models/contract.model.js</title>
<path fill="none" stroke="#757575" d="M404.86,-1175.95C422,-1189.94 449.37,-1214.81 465,-1242.12 494.77,-1294.16 453.28,-1335.83 501,-1372.12 590.43,-1440.16 734.58,-1399.54 803.03,-1374.04"/>
<polygon fill="#757575" stroke="#757575" points="804.24,-1377.32 812.33,-1370.48 801.74,-1370.79 804.24,-1377.32"/>
</g>
<!-- routes/contracts.js&#45;&gt;middlewares/adminAccess.js -->
<g id="edge40" class="edge">
<title>routes/contracts.js&#45;&gt;middlewares/adminAccess.js</title>
<path fill="none" stroke="#757575" d="M407.9,-1152.22C426.02,-1139.34 452.71,-1117 465,-1090.12 518.25,-973.7 433.48,-623.9 501,-515.12 513.17,-495.52 534.42,-481.75 554.42,-472.48"/>
<polygon fill="#757575" stroke="#757575" points="555.53,-475.81 563.32,-468.63 552.75,-469.39 555.53,-475.81"/>
</g>
<!-- routes/contracts.js&#45;&gt;middlewares/jwt.js -->
<g id="edge41" class="edge">
<title>routes/contracts.js&#45;&gt;middlewares/jwt.js</title>
<path fill="none" stroke="#757575" d="M407.94,-1152.24C426.09,-1139.37 452.81,-1117.04 465,-1090.12 495.06,-1023.73 453.13,-490.09 501,-435.12 508.11,-426.96 517.49,-421.51 527.69,-417.96"/>
<polygon fill="#757575" stroke="#757575" points="528.41,-421.4 537.09,-415.33 526.52,-414.66 528.41,-421.4"/>
</g>
<!-- routes/contracts.js&#45;&gt;models/file.model.js -->
<g id="edge45" class="edge">
<title>routes/contracts.js&#45;&gt;models/file.model.js</title>
<path fill="none" stroke="#757575" d="M407.15,-1152.26C424.93,-1139.25 451.61,-1116.67 465,-1090.12 516.96,-987.15 456.69,-939.61 501,-833.12 520.21,-786.95 559.09,-742.58 583.06,-717.97"/>
<polygon fill="#757575" stroke="#757575" points="585.23,-720.76 589.79,-711.2 580.26,-715.83 585.23,-720.76"/>
</g>
<!-- routes/index.js -->
<g id="node30" class="node">
<title>routes/index.js</title>
<path fill="none" stroke="#c6c5fe" d="M237.83,-527.62C237.83,-527.62 145.17,-527.62 145.17,-527.62 141.33,-527.62 137.5,-523.79 137.5,-519.96 137.5,-519.96 137.5,-512.29 137.5,-512.29 137.5,-508.46 141.33,-504.62 145.17,-504.62 145.17,-504.62 237.83,-504.62 237.83,-504.62 241.67,-504.62 245.5,-508.46 245.5,-512.29 245.5,-512.29 245.5,-519.96 245.5,-519.96 245.5,-523.79 241.67,-527.62 237.83,-527.62"/>
<text text-anchor="middle" x="191.5" y="-512.42" font-family="Arial" font-size="14.00" fill="#c6c5fe">routes/index.js</text>
</g>
<!-- routes/index.js&#45;&gt;routes/appartments.js -->
<g id="edge46" class="edge">
<title>routes/index.js&#45;&gt;routes/appartments.js</title>
<path fill="none" stroke="#757575" d="M245.8,-518.5C257.34,-521.58 268.36,-526.97 276,-536.12 322.28,-591.57 282.85,-1119.05 312,-1185.12 322.46,-1208.83 343.67,-1229.4 360.95,-1243.31"/>
<polygon fill="#757575" stroke="#757575" points="358.8,-1246.07 368.86,-1249.4 363.07,-1240.52 358.8,-1246.07"/>
</g>
<!-- routes/index.js&#45;&gt;routes/auth.js -->
<g id="edge47" class="edge">
<title>routes/index.js&#45;&gt;routes/auth.js</title>
<path fill="none" stroke="#757575" d="M245.83,-520.03C256.95,-523.11 267.78,-528.11 276,-536.12 290.72,-550.48 361.85,-846.16 382.11,-931.35"/>
<polygon fill="#757575" stroke="#757575" points="378.7,-932.14 384.41,-941.06 385.51,-930.52 378.7,-932.14"/>
</g>
<!-- routes/index.js&#45;&gt;routes/bills.js -->
<g id="edge48" class="edge">
<title>routes/index.js&#45;&gt;routes/bills.js</title>
<path fill="none" stroke="#757575" d="M245.78,-516.12C271.03,-516.12 301.29,-516.12 327.36,-516.12"/>
<polygon fill="#757575" stroke="#757575" points="327.11,-519.62 337.11,-516.12 327.11,-512.62 327.11,-519.62"/>
</g>
<!-- routes/index.js&#45;&gt;routes/billstatus.js -->
<g id="edge49" class="edge">
<title>routes/index.js&#45;&gt;routes/billstatus.js</title>
<path fill="none" stroke="#757575" d="M245.78,-504.92C268.47,-500.15 295.2,-494.53 319.3,-489.46"/>
<polygon fill="#757575" stroke="#757575" points="319.98,-492.9 329.04,-487.42 318.54,-486.05 319.98,-492.9"/>
</g>
<!-- routes/index.js&#45;&gt;routes/buildings.js -->
<g id="edge50" class="edge">
<title>routes/index.js&#45;&gt;routes/buildings.js</title>
<path fill="none" stroke="#757575" d="M245.63,-518.65C257.17,-521.72 268.24,-527.07 276,-536.12 339.57,-610.26 276.07,-883.31 312,-974.12 323.72,-1003.75 347.95,-1031.53 365.81,-1049.31"/>
<polygon fill="#757575" stroke="#757575" points="363.27,-1051.72 372.9,-1056.14 368.13,-1046.68 363.27,-1051.72"/>
</g>
<!-- routes/index.js&#45;&gt;routes/contracts.js -->
<g id="edge51" class="edge">
<title>routes/index.js&#45;&gt;routes/contracts.js</title>
<path fill="none" stroke="#757575" d="M245.74,-518.56C257.28,-521.63 268.31,-527.01 276,-536.12 355.51,-630.46 260.55,-977.99 312,-1090.12 322.4,-1112.79 343.02,-1132.23 360.09,-1145.5"/>
<polygon fill="#757575" stroke="#757575" points="357.79,-1148.15 367.9,-1151.31 361.97,-1142.53 357.79,-1148.15"/>
</g>
<!-- routes/messages.js -->
<g id="node31" class="node">
<title>routes/messages.js</title>
<path fill="none" stroke="#c6c5fe" d="M451.33,-628.62C451.33,-628.62 325.67,-628.62 325.67,-628.62 321.83,-628.62 318,-624.79 318,-620.96 318,-620.96 318,-613.29 318,-613.29 318,-609.46 321.83,-605.62 325.67,-605.62 325.67,-605.62 451.33,-605.62 451.33,-605.62 455.17,-605.62 459,-609.46 459,-613.29 459,-613.29 459,-620.96 459,-620.96 459,-624.79 455.17,-628.62 451.33,-628.62"/>
<text text-anchor="middle" x="388.5" y="-613.42" font-family="Arial" font-size="14.00" fill="#c6c5fe">routes/messages.js</text>
</g>
<!-- routes/index.js&#45;&gt;routes/messages.js -->
<g id="edge52" class="edge">
<title>routes/index.js&#45;&gt;routes/messages.js</title>
<path fill="none" stroke="#757575" d="M245.61,-522.19C256.37,-525.18 267.1,-529.6 276,-536.12 301.08,-554.51 287.26,-577.28 312,-596.12 313.79,-597.48 315.66,-598.76 317.59,-599.95"/>
<polygon fill="#757575" stroke="#757575" points="315.9,-603.01 326.38,-604.53 319.13,-596.8 315.9,-603.01"/>
</g>
<!-- routes/repairs.js -->
<g id="node32" class="node">
<title>routes/repairs.js</title>
<path fill="none" stroke="#c6c5fe" d="M439.83,-404.62C439.83,-404.62 337.17,-404.62 337.17,-404.62 333.33,-404.62 329.5,-400.79 329.5,-396.96 329.5,-396.96 329.5,-389.29 329.5,-389.29 329.5,-385.46 333.33,-381.62 337.17,-381.62 337.17,-381.62 439.83,-381.62 439.83,-381.62 443.67,-381.62 447.5,-385.46 447.5,-389.29 447.5,-389.29 447.5,-396.96 447.5,-396.96 447.5,-400.79 443.67,-404.62 439.83,-404.62"/>
<text text-anchor="middle" x="388.5" y="-389.42" font-family="Arial" font-size="14.00" fill="#c6c5fe">routes/repairs.js</text>
</g>
<!-- routes/index.js&#45;&gt;routes/repairs.js -->
<g id="edge53" class="edge">
<title>routes/index.js&#45;&gt;routes/repairs.js</title>
<path fill="none" stroke="#757575" d="M202.75,-504.29C221.98,-482.85 265.72,-437.52 312,-413.12 314.72,-411.69 317.55,-410.36 320.44,-409.11"/>
<polygon fill="#757575" stroke="#757575" points="321.67,-412.39 329.75,-405.53 319.16,-405.85 321.67,-412.39"/>
</g>
<!-- routes/repairstatus.js -->
<g id="node33" class="node">
<title>routes/repairstatus.js</title>
<path fill="none" stroke="#c6c5fe" d="M454.83,-445.62C454.83,-445.62 322.17,-445.62 322.17,-445.62 318.33,-445.62 314.5,-441.79 314.5,-437.96 314.5,-437.96 314.5,-430.29 314.5,-430.29 314.5,-426.46 318.33,-422.62 322.17,-422.62 322.17,-422.62 454.83,-422.62 454.83,-422.62 458.67,-422.62 462.5,-426.46 462.5,-430.29 462.5,-430.29 462.5,-437.96 462.5,-437.96 462.5,-441.79 458.67,-445.62 454.83,-445.62"/>
<text text-anchor="middle" x="388.5" y="-430.42" font-family="Arial" font-size="14.00" fill="#c6c5fe">routes/repairstatus.js</text>
</g>
<!-- routes/index.js&#45;&gt;routes/repairstatus.js -->
<g id="edge54" class="edge">
<title>routes/index.js&#45;&gt;routes/repairstatus.js</title>
<path fill="none" stroke="#757575" d="M212.17,-504.2C235.36,-490.56 275.37,-468.28 312,-454.12 316.34,-452.45 320.87,-450.86 325.47,-449.37"/>
<polygon fill="#757575" stroke="#757575" points="326.26,-452.79 334.8,-446.51 324.21,-446.09 326.26,-452.79"/>
</g>
<!-- routes/status.js -->
<g id="node34" class="node">
<title>routes/status.js</title>
<path fill="none" stroke="#c6c5fe" d="M436.83,-281.62C436.83,-281.62 340.17,-281.62 340.17,-281.62 336.33,-281.62 332.5,-277.79 332.5,-273.96 332.5,-273.96 332.5,-266.29 332.5,-266.29 332.5,-262.46 336.33,-258.62 340.17,-258.62 340.17,-258.62 436.83,-258.62 436.83,-258.62 440.67,-258.62 444.5,-262.46 444.5,-266.29 444.5,-266.29 444.5,-273.96 444.5,-273.96 444.5,-277.79 440.67,-281.62 436.83,-281.62"/>
<text text-anchor="middle" x="388.5" y="-266.42" font-family="Arial" font-size="14.00" fill="#c6c5fe">routes/status.js</text>
</g>
<!-- routes/index.js&#45;&gt;routes/status.js -->
<g id="edge55" class="edge">
<title>routes/index.js&#45;&gt;routes/status.js</title>
<path fill="none" stroke="#757575" d="M195.15,-504.38C204.26,-466.89 237.83,-349.09 312,-290.12 315.06,-287.69 318.4,-285.55 321.9,-283.67"/>
<polygon fill="#757575" stroke="#757575" points="323.1,-286.96 330.76,-279.65 320.21,-280.59 323.1,-286.96"/>
</g>
<!-- routes/tasks.js -->
<g id="node35" class="node">
<title>routes/tasks.js</title>
<path fill="none" stroke="#c6c5fe" d="M434.33,-322.62C434.33,-322.62 342.67,-322.62 342.67,-322.62 338.83,-322.62 335,-318.79 335,-314.96 335,-314.96 335,-307.29 335,-307.29 335,-303.46 338.83,-299.62 342.67,-299.62 342.67,-299.62 434.33,-299.62 434.33,-299.62 438.17,-299.62 442,-303.46 442,-307.29 442,-307.29 442,-314.96 442,-314.96 442,-318.79 438.17,-322.62 434.33,-322.62"/>
<text text-anchor="middle" x="388.5" y="-307.42" font-family="Arial" font-size="14.00" fill="#c6c5fe">routes/tasks.js</text>
</g>
<!-- routes/index.js&#45;&gt;routes/tasks.js -->
<g id="edge56" class="edge">
<title>routes/index.js&#45;&gt;routes/tasks.js</title>
<path fill="none" stroke="#757575" d="M196.57,-504.46C208.61,-471.67 247.34,-378.08 312,-331.12 315.83,-328.35 320.01,-325.95 324.39,-323.89"/>
<polygon fill="#757575" stroke="#757575" points="325.49,-327.22 333.46,-320.23 322.87,-320.73 325.49,-327.22"/>
</g>
<!-- routes/taskstatus.js -->
<g id="node36" class="node">
<title>routes/taskstatus.js</title>
<path fill="none" stroke="#c6c5fe" d="M449.33,-363.62C449.33,-363.62 327.67,-363.62 327.67,-363.62 323.83,-363.62 320,-359.79 320,-355.96 320,-355.96 320,-348.29 320,-348.29 320,-344.46 323.83,-340.62 327.67,-340.62 327.67,-340.62 449.33,-340.62 449.33,-340.62 453.17,-340.62 457,-344.46 457,-348.29 457,-348.29 457,-355.96 457,-355.96 457,-359.79 453.17,-363.62 449.33,-363.62"/>
<text text-anchor="middle" x="388.5" y="-348.42" font-family="Arial" font-size="14.00" fill="#c6c5fe">routes/taskstatus.js</text>
</g>
<!-- routes/index.js&#45;&gt;routes/taskstatus.js -->
<g id="edge57" class="edge">
<title>routes/index.js&#45;&gt;routes/taskstatus.js</title>
<path fill="none" stroke="#757575" d="M198.83,-504.32C214.27,-476.69 256.7,-407.46 312,-372.12 313.84,-370.95 315.75,-369.84 317.71,-368.8"/>
<polygon fill="#757575" stroke="#757575" points="318.89,-372.11 326.51,-364.74 315.96,-365.75 318.89,-372.11"/>
</g>
<!-- routes/tenants.js -->
<g id="node37" class="node">
<title>routes/tenants.js</title>
<path fill="none" stroke="#c6c5fe" d="M440.83,-587.62C440.83,-587.62 336.17,-587.62 336.17,-587.62 332.33,-587.62 328.5,-583.79 328.5,-579.96 328.5,-579.96 328.5,-572.29 328.5,-572.29 328.5,-568.46 332.33,-564.62 336.17,-564.62 336.17,-564.62 440.83,-564.62 440.83,-564.62 444.67,-564.62 448.5,-568.46 448.5,-572.29 448.5,-572.29 448.5,-579.96 448.5,-579.96 448.5,-583.79 444.67,-587.62 440.83,-587.62"/>
<text text-anchor="middle" x="388.5" y="-572.42" font-family="Arial" font-size="14.00" fill="#c6c5fe">routes/tenants.js</text>
</g>
<!-- routes/index.js&#45;&gt;routes/tenants.js -->
<g id="edge58" class="edge">
<title>routes/index.js&#45;&gt;routes/tenants.js</title>
<path fill="none" stroke="#757575" d="M245.74,-527.95C255.84,-530.46 266.29,-533.23 276,-536.12 299.56,-543.15 325.42,-552.33 346.3,-560.13"/>
<polygon fill="#757575" stroke="#757575" points="345.03,-563.39 355.62,-563.64 347.5,-556.84 345.03,-563.39"/>
</g>
<!-- routes/messages.js&#45;&gt;helpers/validation.js -->
<g id="edge59" class="edge">
<title>routes/messages.js&#45;&gt;helpers/validation.js</title>
<path fill="none" stroke="#757575" d="M397.63,-628.82C414.07,-651.29 453.72,-699.9 501,-718.12 600.37,-756.44 728.06,-729.61 795.31,-710.23"/>
<polygon fill="#757575" stroke="#757575" points="795.92,-713.7 804.52,-707.5 793.93,-706.99 795.92,-713.7"/>
</g>
<!-- routes/messages.js&#45;&gt;models/tenant.model.js -->
<g id="edge66" class="edge">
<title>routes/messages.js&#45;&gt;models/tenant.model.js</title>
<path fill="none" stroke="#757575" d="M390.77,-628.9C395.86,-670.04 418.72,-808.42 501,-874.12 574.16,-932.54 617.04,-890.99 708,-913.12 736.98,-920.18 769,-929.71 794.42,-937.7"/>
<polygon fill="#757575" stroke="#757575" points="793.2,-940.99 803.79,-940.68 795.32,-934.32 793.2,-940.99"/>
</g>
<!-- routes/messages.js&#45;&gt;middlewares/adminAccess.js -->
<g id="edge60" class="edge">
<title>routes/messages.js&#45;&gt;middlewares/adminAccess.js</title>
<path fill="none" stroke="#757575" d="M450.87,-605.28C455.97,-602.78 460.78,-599.77 465,-596.12 494.83,-570.39 474.63,-544.39 501,-515.12 517.62,-496.68 541.41,-482.5 561.88,-472.66"/>
<polygon fill="#757575" stroke="#757575" points="563.23,-475.9 570.86,-468.55 560.31,-469.53 563.23,-475.9"/>
</g>
<!-- routes/messages.js&#45;&gt;middlewares/jwt.js -->
<g id="edge61" class="edge">
<title>routes/messages.js&#45;&gt;middlewares/jwt.js</title>
<path fill="none" stroke="#757575" d="M453.11,-605.33C457.49,-602.81 461.53,-599.77 465,-596.12 515.5,-542.97 448.45,-486.26 501,-435.12 508.49,-427.84 517.81,-422.81 527.74,-419.41"/>
<polygon fill="#757575" stroke="#757575" points="528.58,-422.81 537.26,-416.73 526.68,-416.07 528.58,-422.81"/>
</g>
<!-- routes/messages.js&#45;&gt;models/comment.model.js -->
<g id="edge62" class="edge">
<title>routes/messages.js&#45;&gt;models/comment.model.js</title>
<path fill="none" stroke="#757575" d="M392.19,-629.12C400.95,-665.27 432.13,-773.95 501,-828.12 505.57,-831.72 510.58,-834.83 515.85,-837.51"/>
<polygon fill="#757575" stroke="#757575" points="514.32,-840.65 524.88,-841.53 517.18,-834.26 514.32,-840.65"/>
</g>
<!-- routes/messages.js&#45;&gt;models/message.model.js -->
<g id="edge63" class="edge">
<title>routes/messages.js&#45;&gt;models/message.model.js</title>
<path fill="none" stroke="#757575" d="M459.28,-616.8C472.46,-616.74 486.51,-616.67 500.46,-616.61"/>
<polygon fill="#757575" stroke="#757575" points="500.12,-620.11 510.11,-616.56 500.09,-613.11 500.12,-620.11"/>
</g>
<!-- routes/messages.js&#45;&gt;models/owner.model.js -->
<g id="edge64" class="edge">
<title>routes/messages.js&#45;&gt;models/owner.model.js</title>
<path fill="none" stroke="#757575" d="M390.29,-628.97C393.89,-673.13 412.65,-829.59 501,-908.12 504.85,-911.54 509.08,-914.53 513.57,-917.13"/>
<polygon fill="#757575" stroke="#757575" points="511.9,-920.2 522.41,-921.55 515.03,-913.94 511.9,-920.2"/>
</g>
<!-- routes/messages.js&#45;&gt;models/task.model.js -->
<g id="edge65" class="edge">
<title>routes/messages.js&#45;&gt;models/task.model.js</title>
<path fill="none" stroke="#757575" d="M453.64,-605.28C457.84,-602.77 461.7,-599.75 465,-596.12 526.35,-528.66 437.05,-459.13 501,-394.12 506.01,-389.04 511.9,-385.04 518.28,-381.92"/>
<polygon fill="#757575" stroke="#757575" points="519.31,-385.28 527.27,-378.28 516.68,-378.79 519.31,-385.28"/>
</g>
<!-- routes/repairs.js&#45;&gt;helpers/validation.js -->
<g id="edge67" class="edge">
<title>routes/repairs.js&#45;&gt;helpers/validation.js</title>
<path fill="none" stroke="#757575" d="M447.88,-383.84C454.24,-380.91 460.15,-377.09 465,-372.12 510.51,-325.56 449.62,-270.11 501,-230.12 537.3,-201.88 672.49,-200.89 708,-230.12 772.33,-283.09 722.29,-333.67 744,-414.12 770.48,-512.25 813.88,-625.59 832.52,-672.75"/>
<polygon fill="#757575" stroke="#757575" points="829.2,-673.86 836.15,-681.86 835.7,-671.27 829.2,-673.86"/>
</g>
<!-- routes/repairs.js&#45;&gt;middlewares/adminAccess.js -->
<g id="edge68" class="edge">
<title>routes/repairs.js&#45;&gt;middlewares/adminAccess.js</title>
<path fill="none" stroke="#757575" d="M442.55,-405.09C450.21,-407.41 457.89,-410.09 465,-413.12 482.24,-420.49 483.55,-428.25 501,-435.12 506.65,-437.35 512.57,-439.35 518.6,-441.15"/>
<polygon fill="#757575" stroke="#757575" points="517.5,-444.48 528.07,-443.78 519.37,-437.73 517.5,-444.48"/>
</g>
<!-- routes/repairs.js&#45;&gt;middlewares/jwt.js -->
<g id="edge69" class="edge">
<title>routes/repairs.js&#45;&gt;middlewares/jwt.js</title>
<path fill="none" stroke="#757575" d="M447.98,-399.14C472.45,-401.65 501.21,-404.61 527.31,-407.29"/>
<polygon fill="#757575" stroke="#757575" points="526.88,-410.77 537.19,-408.31 527.6,-403.8 526.88,-410.77"/>
</g>
<!-- routes/repairs.js&#45;&gt;models/file.model.js -->
<g id="edge70" class="edge">
<title>routes/repairs.js&#45;&gt;models/file.model.js</title>
<path fill="none" stroke="#757575" d="M447.65,-400.75C454.22,-403.73 460.24,-407.74 465,-413.12 543.41,-501.86 420.1,-590.65 501,-677.12 506.76,-683.28 513.8,-687.89 521.46,-691.32"/>
<polygon fill="#757575" stroke="#757575" points="520.23,-694.6 530.83,-694.77 522.65,-688.03 520.23,-694.6"/>
</g>
<!-- routes/repairs.js&#45;&gt;models/repair.model.js -->
<g id="edge71" class="edge">
<title>routes/repairs.js&#45;&gt;models/repair.model.js</title>
<path fill="none" stroke="#757575" d="M447.72,-384.22C454.19,-381.23 460.17,-377.3 465,-372.12 519.2,-314.09 455.66,-262.31 501,-197.12 515.82,-175.81 540.27,-160.15 561.57,-149.65"/>
<polygon fill="#757575" stroke="#757575" points="562.76,-152.96 570.34,-145.56 559.8,-146.62 562.76,-152.96"/>
</g>
<!-- routes/repairs.js&#45;&gt;models/repair_status.model.js -->
<g id="edge72" class="edge">
<title>routes/repairs.js&#45;&gt;models/repair_status.model.js</title>
<path fill="none" stroke="#757575" d="M447.81,-383.22C454.11,-380.39 460.02,-376.76 465,-372.12 499.87,-339.65 464.88,-302.21 501,-271.12 501.67,-270.55 502.35,-269.99 503.04,-269.44"/>
<polygon fill="#757575" stroke="#757575" points="504.94,-272.38 511.35,-263.94 501.08,-266.54 504.94,-272.38"/>
</g>
<!-- routes/repairs.js&#45;&gt;models/task.model.js -->
<g id="edge73" class="edge">
<title>routes/repairs.js&#45;&gt;models/task.model.js</title>
<path fill="none" stroke="#757575" d="M447.98,-387.93C469.35,-386.03 494.01,-383.85 517.29,-381.78"/>
<polygon fill="#757575" stroke="#757575" points="517.44,-385.28 527.09,-380.91 516.82,-378.31 517.44,-385.28"/>
</g>
<!-- routes/repairstatus.js&#45;&gt;middlewares/adminAccess.js -->
<g id="edge74" class="edge">
<title>routes/repairstatus.js&#45;&gt;middlewares/adminAccess.js</title>
<path fill="none" stroke="#757575" d="M462.85,-441.67C472.43,-442.65 482.41,-443.68 492.44,-444.71"/>
<polygon fill="#757575" stroke="#757575" points="491.96,-448.18 502.26,-445.72 492.67,-441.21 491.96,-448.18"/>
</g>
<!-- routes/repairstatus.js&#45;&gt;middlewares/jwt.js -->
<g id="edge75" class="edge">
<title>routes/repairstatus.js&#45;&gt;middlewares/jwt.js</title>
<path fill="none" stroke="#757575" d="M462.85,-427.61C483.67,-425.76 506.39,-423.75 527.38,-421.88"/>
<polygon fill="#757575" stroke="#757575" points="527.68,-425.37 537.33,-421 527.06,-418.4 527.68,-425.37"/>
</g>
<!-- routes/repairstatus.js&#45;&gt;models/repair_status.model.js -->
<g id="edge76" class="edge">
<title>routes/repairstatus.js&#45;&gt;models/repair_status.model.js</title>
<path fill="none" stroke="#757575" d="M453,-422.22C457.4,-419.72 461.48,-416.72 465,-413.12 510.51,-366.56 453.7,-315.87 501,-271.12 501.51,-270.64 502.04,-270.16 502.57,-269.7"/>
<polygon fill="#757575" stroke="#757575" points="504.54,-272.59 510.56,-263.87 500.42,-266.93 504.54,-272.59"/>
</g>
<!-- routes/status.js&#45;&gt;helpers/validation.js -->
<g id="edge77" class="edge">
<title>routes/status.js&#45;&gt;helpers/validation.js</title>
<path fill="none" stroke="#757575" d="M391.83,-258.27C399.63,-222.19 428.56,-113.57 501,-71.12 540.69,-47.87 673.82,-40.34 708,-71.12 764.95,-122.41 727.33,-339.32 744,-414.12 766.11,-513.33 811.85,-626.09 831.82,-672.92"/>
<polygon fill="#757575" stroke="#757575" points="828.55,-674.17 835.72,-681.97 834.98,-671.4 828.55,-674.17"/>
</g>
<!-- routes/status.js&#45;&gt;models/status.model.js -->
<g id="edge84" class="edge">
<title>routes/status.js&#45;&gt;models/status.model.js</title>
<path fill="none" stroke="#757575" d="M390.87,-258.39C396.19,-218.75 419.48,-89.39 501,-38.12 578.88,10.85 632.38,14.28 708,-38.12 821.68,-116.9 838.7,-305.21 841.14,-370.98"/>
<polygon fill="#757575" stroke="#757575" points="837.64,-371.02 841.41,-380.92 844.63,-370.83 837.64,-371.02"/>
</g>
<!-- routes/status.js&#45;&gt;middlewares/adminAccess.js -->
<g id="edge78" class="edge">
<title>routes/status.js&#45;&gt;middlewares/adminAccess.js</title>
<path fill="none" stroke="#757575" d="M444.85,-277.3C452.35,-280.29 459.39,-284.42 465,-290.12 511.58,-337.44 453.09,-389.15 501,-435.12 501.92,-436.01 502.86,-436.85 503.83,-437.67"/>
<polygon fill="#757575" stroke="#757575" points="501.71,-440.46 511.9,-443.33 505.73,-434.73 501.71,-440.46"/>
</g>
<!-- routes/status.js&#45;&gt;middlewares/jwt.js -->
<g id="edge79" class="edge">
<title>routes/status.js&#45;&gt;middlewares/jwt.js</title>
<path fill="none" stroke="#757575" d="M444.79,-277.91C452.21,-280.82 459.24,-284.77 465,-290.12 500.85,-323.4 464.22,-361.88 501,-394.12 508.72,-400.9 518.04,-405.7 527.86,-409.08"/>
<polygon fill="#757575" stroke="#757575" points="526.63,-412.37 537.21,-411.78 528.58,-405.64 526.63,-412.37"/>
</g>
<!-- routes/status.js&#45;&gt;models/bill.model.js -->
<g id="edge80" class="edge">
<title>routes/status.js&#45;&gt;models/bill.model.js</title>
<path fill="none" stroke="#757575" d="M442.55,-282.09C450.21,-284.41 457.89,-287.09 465,-290.12 482.24,-297.49 483.55,-305.25 501,-312.12 507.54,-314.7 514.45,-316.98 521.47,-318.99"/>
<polygon fill="#757575" stroke="#757575" points="520.51,-322.36 531.08,-321.55 522.31,-315.59 520.51,-322.36"/>
</g>
<!-- routes/status.js&#45;&gt;models/bill_status.model.js -->
<g id="edge81" class="edge">
<title>routes/status.js&#45;&gt;models/bill_status.model.js</title>
<path fill="none" stroke="#757575" d="M444.89,-275.82C461.48,-277.52 480.24,-279.45 498.91,-281.37"/>
<polygon fill="#757575" stroke="#757575" points="498.38,-284.84 508.68,-282.38 499.09,-277.87 498.38,-284.84"/>
</g>
<!-- routes/status.js&#45;&gt;models/repair.model.js -->
<g id="edge82" class="edge">
<title>routes/status.js&#45;&gt;models/repair.model.js</title>
<path fill="none" stroke="#757575" d="M397.84,-258.35C414.64,-235.53 454.9,-185.26 501,-159.12 508.22,-155.03 516.08,-151.57 524.14,-148.65"/>
<polygon fill="#757575" stroke="#757575" points="524.98,-152.06 533.37,-145.59 522.77,-145.42 524.98,-152.06"/>
</g>
<!-- routes/status.js&#45;&gt;models/repair_status.model.js -->
<g id="edge83" class="edge">
<title>routes/status.js&#45;&gt;models/repair_status.model.js</title>
<path fill="none" stroke="#757575" d="M444.89,-265.21C458.64,-263.99 473.89,-262.63 489.34,-261.26"/>
<polygon fill="#757575" stroke="#757575" points="489.44,-264.77 499.09,-260.39 488.82,-257.79 489.44,-264.77"/>
</g>
<!-- routes/status.js&#45;&gt;models/task.model.js -->
<g id="edge85" class="edge">
<title>routes/status.js&#45;&gt;models/task.model.js</title>
<path fill="none" stroke="#757575" d="M444.72,-279.2C451.98,-281.94 458.98,-285.5 465,-290.12 490.57,-309.78 474.88,-334.21 501,-353.12 506.28,-356.95 512.09,-360.11 518.18,-362.73"/>
<polygon fill="#757575" stroke="#757575" points="516.64,-365.89 527.23,-366.1 519.09,-359.33 516.64,-365.89"/>
</g>
<!-- routes/status.js&#45;&gt;models/task_status.model.js -->
<g id="edge86" class="edge">
<title>routes/status.js&#45;&gt;models/task_status.model.js</title>
<path fill="none" stroke="#757575" d="M394.13,-258.26C406.48,-228.34 443.22,-149.52 501,-112.12 502.83,-110.94 504.71,-109.83 506.63,-108.77"/>
<polygon fill="#757575" stroke="#757575" points="507.71,-112.14 515.23,-104.68 504.69,-105.82 507.71,-112.14"/>
</g>
<!-- routes/tasks.js&#45;&gt;helpers/validation.js -->
<g id="edge87" class="edge">
<title>routes/tasks.js&#45;&gt;helpers/validation.js</title>
<path fill="none" stroke="#757575" d="M442.16,-303.1C450.47,-300.06 458.46,-295.87 465,-290.12 495.82,-263.05 466.8,-227.78 501,-205.12 577.7,-154.32 637.64,-145.85 708,-205.12 744.04,-235.49 732.24,-368.49 744,-414.12 769.37,-512.54 813.36,-625.73 832.34,-672.8"/>
<polygon fill="#757575" stroke="#757575" points="829.03,-673.94 836.04,-681.89 835.52,-671.3 829.03,-673.94"/>
</g>
<!-- routes/tasks.js&#45;&gt;middlewares/adminAccess.js -->
<g id="edge88" class="edge">
<title>routes/tasks.js&#45;&gt;middlewares/adminAccess.js</title>
<path fill="none" stroke="#757575" d="M442.47,-318.04C450.74,-321.02 458.64,-325.22 465,-331.12 500.85,-364.4 464.22,-402.88 501,-435.12 502.28,-436.25 503.6,-437.32 504.97,-438.33"/>
<polygon fill="#757575" stroke="#757575" points="502.87,-441.15 513.19,-443.52 506.6,-435.22 502.87,-441.15"/>
</g>
<!-- routes/tasks.js&#45;&gt;middlewares/jwt.js -->
<g id="edge89" class="edge">
<title>routes/tasks.js&#45;&gt;middlewares/jwt.js</title>
<path fill="none" stroke="#757575" d="M442.38,-319.35C450.47,-322.19 458.33,-326 465,-331.12 490.57,-350.78 474.88,-375.21 501,-394.12 508.96,-399.89 518.14,-404.16 527.66,-407.3"/>
<polygon fill="#757575" stroke="#757575" points="526.48,-410.61 537.06,-409.98 528.4,-403.87 526.48,-410.61"/>
</g>
<!-- routes/tasks.js&#45;&gt;models/message.model.js -->
<g id="edge90" class="edge">
<title>routes/tasks.js&#45;&gt;models/message.model.js</title>
<path fill="none" stroke="#757575" d="M442.23,-316.71C450.83,-319.81 458.91,-324.39 465,-331.12 532.93,-406.23 443.82,-472.54 501,-556.12 514.48,-575.83 536.74,-589.99 557.08,-599.58"/>
<polygon fill="#757575" stroke="#757575" points="555.54,-602.73 566.1,-603.58 558.37,-596.33 555.54,-602.73"/>
</g>
<!-- routes/tasks.js&#45;&gt;models/repair.model.js -->
<g id="edge91" class="edge">
<title>routes/tasks.js&#45;&gt;models/repair.model.js</title>
<path fill="none" stroke="#757575" d="M442.44,-303.96C450.82,-300.82 458.76,-296.39 465,-290.12 507.63,-247.36 457.88,-201.4 501,-159.12 504.85,-155.35 509.17,-152.09 513.8,-149.3"/>
<polygon fill="#757575" stroke="#757575" points="515.08,-152.58 522.34,-144.86 511.85,-146.36 515.08,-152.58"/>
</g>
<!-- routes/tasks.js&#45;&gt;models/task.model.js -->
<g id="edge92" class="edge">
<title>routes/tasks.js&#45;&gt;models/task.model.js</title>
<path fill="none" stroke="#757575" d="M442.15,-322.97C449.94,-325.32 457.77,-328.03 465,-331.12 482.24,-338.49 483.55,-346.25 501,-353.12 506.65,-355.35 512.57,-357.35 518.6,-359.15"/>
<polygon fill="#757575" stroke="#757575" points="517.5,-362.48 528.07,-361.78 519.37,-355.73 517.5,-362.48"/>
</g>
<!-- routes/tasks.js&#45;&gt;models/task_status.model.js -->
<g id="edge93" class="edge">
<title>routes/tasks.js&#45;&gt;models/task_status.model.js</title>
<path fill="none" stroke="#757575" d="M442.42,-304.45C450.9,-301.28 458.88,-296.7 465,-290.12 519.99,-231.04 443.73,-169 501,-112.12 501.39,-111.74 501.78,-111.36 502.17,-110.99"/>
<polygon fill="#757575" stroke="#757575" points="504.16,-113.88 509.94,-105 499.89,-108.34 504.16,-113.88"/>
</g>
<!-- routes/taskstatus.js&#45;&gt;middlewares/adminAccess.js -->
<g id="edge94" class="edge">
<title>routes/taskstatus.js&#45;&gt;middlewares/adminAccess.js</title>
<path fill="none" stroke="#757575" d="M451.62,-364.1C456.38,-366.34 460.91,-368.98 465,-372.12 490.57,-391.78 474.88,-416.21 501,-435.12 503,-436.57 505.08,-437.93 507.22,-439.2"/>
<polygon fill="#757575" stroke="#757575" points="505.13,-442.06 515.63,-443.51 508.33,-435.83 505.13,-442.06"/>
</g>
<!-- routes/taskstatus.js&#45;&gt;middlewares/jwt.js -->
<g id="edge95" class="edge">
<title>routes/taskstatus.js&#45;&gt;middlewares/jwt.js</title>
<path fill="none" stroke="#757575" d="M442.55,-364.09C450.21,-366.41 457.89,-369.09 465,-372.12 482.24,-379.49 483.55,-387.25 501,-394.12 509.41,-397.44 518.42,-400.26 527.49,-402.65"/>
<polygon fill="#757575" stroke="#757575" points="526.52,-406.01 537.07,-405 528.19,-399.22 526.52,-406.01"/>
</g>
<!-- routes/taskstatus.js&#45;&gt;models/task_status.model.js -->
<g id="edge96" class="edge">
<title>routes/taskstatus.js&#45;&gt;models/task_status.model.js</title>
<path fill="none" stroke="#757575" d="M453.69,-340.33C457.89,-337.81 461.73,-334.77 465,-331.12 530.87,-257.7 432.3,-182.9 501,-112.12 501.38,-111.73 501.76,-111.35 502.15,-110.97"/>
<polygon fill="#757575" stroke="#757575" points="504.17,-113.84 509.82,-104.88 499.81,-108.36 504.17,-113.84"/>
</g>
<!-- routes/tenants.js&#45;&gt;helpers/validation.js -->
<g id="edge97" class="edge">
<title>routes/tenants.js&#45;&gt;helpers/validation.js</title>
<path fill="none" stroke="#757575" d="M448.79,-569.72C514.35,-564.88 622.05,-563.63 708,-595.12 754.74,-612.25 798.9,-651.46 822.87,-675.38"/>
<polygon fill="#757575" stroke="#757575" points="820.2,-677.66 829.7,-682.35 825.2,-672.76 820.2,-677.66"/>
</g>
<!-- routes/tenants.js&#45;&gt;models/building.model.js -->
<g id="edge104" class="edge">
<title>routes/tenants.js&#45;&gt;models/building.model.js</title>
<path fill="none" stroke="#757575" d="M448.81,-583.74C455.01,-586.74 460.63,-590.76 465,-596.12 557.59,-709.87 429.57,-1127.03 501,-1255.12 519.33,-1288 734.8,-1425.24 813.2,-1474.46"/>
<polygon fill="#757575" stroke="#757575" points="810.87,-1477.13 821.2,-1479.47 814.59,-1471.19 810.87,-1477.13"/>
</g>
<!-- routes/tenants.js&#45;&gt;models/tenant.model.js -->
<g id="edge109" class="edge">
<title>routes/tenants.js&#45;&gt;models/tenant.model.js</title>
<path fill="none" stroke="#757575" d="M448.79,-585.29C454.76,-588.05 460.33,-591.59 465,-596.12 505.53,-635.54 459.51,-679.73 501,-718.12 570.03,-782.01 629.59,-710.18 708,-762.12 772.46,-804.83 815.09,-890.24 832.55,-930.78"/>
<polygon fill="#757575" stroke="#757575" points="829.31,-932.11 836.39,-939.99 835.77,-929.41 829.31,-932.11"/>
</g>
<!-- routes/tenants.js&#45;&gt;models/appartment.model.js -->
<g id="edge101" class="edge">
<title>routes/tenants.js&#45;&gt;models/appartment.model.js</title>
<path fill="none" stroke="#757575" d="M448.71,-584.83C454.77,-587.66 460.38,-591.35 465,-596.12 515.03,-647.93 453.77,-699.75 501,-754.12 565.57,-828.47 642.41,-759.68 708,-833.12 750.79,-881.04 723.45,-912.25 744,-973.12 770.54,-1051.75 811.62,-1141.37 830.87,-1182.01"/>
<polygon fill="#757575" stroke="#757575" points="827.68,-1183.45 835.14,-1190.98 834,-1180.44 827.68,-1183.45"/>
</g>
<!-- routes/tenants.js&#45;&gt;models/contract.model.js -->
<g id="edge105" class="edge">
<title>routes/tenants.js&#45;&gt;models/contract.model.js</title>
<path fill="none" stroke="#757575" d="M448.79,-583.75C455,-586.75 460.63,-590.77 465,-596.12 553.52,-704.59 407.12,-1121.26 501,-1225.12 563.47,-1294.24 622.21,-1221.8 708,-1258.12 753.36,-1277.33 797.39,-1315.17 821.82,-1338.39"/>
<polygon fill="#757575" stroke="#757575" points="819.2,-1340.73 828.82,-1345.18 824.07,-1335.7 819.2,-1340.73"/>
</g>
<!-- routes/tenants.js&#45;&gt;middlewares/adminAccess.js -->
<g id="edge98" class="edge">
<title>routes/tenants.js&#45;&gt;middlewares/adminAccess.js</title>
<path fill="none" stroke="#757575" d="M412.43,-564.29C427.46,-556.45 447.5,-545.86 465,-536.12 481.19,-527.12 484.97,-524.41 501,-515.12 525.05,-501.19 552.34,-485.49 572.7,-473.79"/>
<polygon fill="#757575" stroke="#757575" points="574.43,-476.84 581.36,-468.82 570.94,-470.76 574.43,-476.84"/>
</g>
<!-- routes/tenants.js&#45;&gt;middlewares/filterAccess.js -->
<g id="edge99" class="edge">
<title>routes/tenants.js&#45;&gt;middlewares/filterAccess.js</title>
<path fill="none" stroke="#757575" d="M448.21,-588C454.08,-590.26 459.79,-592.94 465,-596.12 485.41,-608.59 480.24,-624.24 501,-636.12 504.05,-637.87 507.23,-639.48 510.5,-640.95"/>
<polygon fill="#757575" stroke="#757575" points="509.2,-644.2 519.79,-644.65 511.79,-637.7 509.2,-644.2"/>
</g>
<!-- routes/tenants.js&#45;&gt;middlewares/jwt.js -->
<g id="edge100" class="edge">
<title>routes/tenants.js&#45;&gt;middlewares/jwt.js</title>
<path fill="none" stroke="#757575" d="M424.36,-564.15C438.61,-557.75 454.23,-548.58 465,-536.12 496.17,-500.08 464.88,-466.21 501,-435.12 508.77,-428.44 518.11,-423.73 527.95,-420.45"/>
<polygon fill="#757575" stroke="#757575" points="528.61,-423.9 537.3,-417.84 526.73,-417.16 528.61,-423.9"/>
</g>
<!-- routes/tenants.js&#45;&gt;models/bill.model.js -->
<g id="edge102" class="edge">
<title>routes/tenants.js&#45;&gt;models/bill.model.js</title>
<path fill="none" stroke="#757575" d="M426.84,-564.2C440.79,-557.94 455.54,-548.87 465,-536.12 514.43,-469.58 442.34,-411.69 501,-353.12 506.95,-347.18 514.12,-342.73 521.86,-339.44"/>
<polygon fill="#757575" stroke="#757575" points="523.01,-342.74 531.28,-336.12 520.68,-336.14 523.01,-342.74"/>
</g>
<!-- routes/tenants.js&#45;&gt;models/bill_status.model.js -->
<g id="edge103" class="edge">
<title>routes/tenants.js&#45;&gt;models/bill_status.model.js</title>
<path fill="none" stroke="#757575" d="M427.46,-564.19C441.33,-557.96 455.85,-548.91 465,-536.12 523.71,-454.15 430.9,-384.6 501,-312.12 501.38,-311.73 501.76,-311.35 502.15,-310.97"/>
<polygon fill="#757575" stroke="#757575" points="504.17,-313.84 509.8,-304.87 499.8,-308.37 504.17,-313.84"/>
</g>
<!-- routes/tenants.js&#45;&gt;models/file.model.js -->
<g id="edge106" class="edge">
<title>routes/tenants.js&#45;&gt;models/file.model.js</title>
<path fill="none" stroke="#757575" d="M448.98,-586.25C454.77,-588.84 460.25,-592.08 465,-596.12 494.98,-621.68 470.3,-652.44 501,-677.12 507.11,-682.04 514.07,-685.89 521.43,-688.9"/>
<polygon fill="#757575" stroke="#757575" points="520.01,-692.12 530.61,-692.12 522.33,-685.51 520.01,-692.12"/>
</g>
<!-- routes/tenants.js&#45;&gt;models/message.model.js -->
<g id="edge107" class="edge">
<title>routes/tenants.js&#45;&gt;models/message.model.js</title>
<path fill="none" stroke="#757575" d="M448.83,-587.21C473.5,-591.83 502.43,-597.23 528.56,-602.12"/>
<polygon fill="#757575" stroke="#757575" points="527.6,-605.5 538.07,-603.89 528.88,-598.62 527.6,-605.5"/>
</g>
<!-- routes/tenants.js&#45;&gt;models/task.model.js -->
<g id="edge108" class="edge">
<title>routes/tenants.js&#45;&gt;models/task.model.js</title>
<path fill="none" stroke="#757575" d="M425.71,-564.28C439.84,-557.98 455.01,-548.84 465,-536.12 505.22,-484.93 453.7,-438.87 501,-394.12 506.1,-389.3 512,-385.48 518.35,-382.47"/>
<polygon fill="#757575" stroke="#757575" points="519.23,-385.88 527.22,-378.93 516.64,-379.38 519.23,-385.88"/>
</g>
<!-- server.js -->
<g id="node38" class="node">
<title>server.js</title>
<path fill="none" stroke="#c6c5fe" d="M63.33,-547.62C63.33,-547.62 7.67,-547.62 7.67,-547.62 3.83,-547.62 0,-543.79 0,-539.96 0,-539.96 0,-532.29 0,-532.29 0,-528.46 3.83,-524.62 7.67,-524.62 7.67,-524.62 63.33,-524.62 63.33,-524.62 67.17,-524.62 71,-528.46 71,-532.29 71,-532.29 71,-539.96 71,-539.96 71,-543.79 67.17,-547.62 63.33,-547.62"/>
<text text-anchor="middle" x="35.5" y="-532.42" font-family="Arial" font-size="14.00" fill="#c6c5fe">server.js</text>
</g>
<!-- server.js&#45;&gt;middlewares/swagger.js -->
<g id="edge110" class="edge">
<title>server.js&#45;&gt;middlewares/swagger.js</title>
<path fill="none" stroke="#757575" d="M71.44,-540.89C78.85,-541.9 87,-543.01 95.46,-544.17"/>
<polygon fill="#757575" stroke="#757575" points="94.85,-547.61 105.23,-545.5 95.79,-540.68 94.85,-547.61"/>
</g>
<!-- server.js&#45;&gt;routes/index.js -->
<g id="edge111" class="edge">
<title>server.js&#45;&gt;routes/index.js</title>
<path fill="none" stroke="#757575" d="M71.44,-531.59C87.62,-529.49 107.36,-526.92 126.08,-524.49"/>
<polygon fill="#757575" stroke="#757575" points="126.28,-527.99 135.75,-523.24 125.38,-521.05 126.28,-527.99"/>
</g>
</g>
</svg>
